<svg xmlns="http://www.w3.org/2000/svg" data-name="Layer 1" viewBox="0 0 100 125" x="0px" y="0px" fill="white">
    <path d="M49.34821,44.819a5.92875,5.92875,0,1,1-5.92872-5.92871A5.92875,5.92875,0,0,1,49.34821,44.819Zm14.3894,5.92877A5.92874,5.92874,0,1,0,57.80884,44.819,5.92874,5.92874,0,0,0,63.73761,50.7478ZM43.41949,58.09418a5.92874,5.92874,0,1,0,5.92872,5.92871A5.92871,5.92871,0,0,0,43.41949,58.09418Zm-20.31817,0a5.92874,5.92874,0,1,0,5.92877,5.92871A5.92869,5.92869,0,0,0,23.10132,58.09418ZM62.73877,5a2.0001,2.0001,0,0,0-2,2v3.92871h-30.71v4h30.71v2.77588H59.18994a2,2,0,0,0,0,4H66.2876a2,2,0,0,0,0-4H64.73877V7A2.0001,2.0001,0,0,0,62.73877,5ZM72.187,77.47168,68.144,73.4292l-2.82812,2.82812L72.187,83.12793,86.12109,69.19385,83.293,66.36572ZM95,74.00781a20.98348,20.98348,0,0,1-40.45441,7.83106H15.66064A10.67236,10.67236,0,0,1,5.00049,71.17871V21.58887A10.67236,10.67236,0,0,1,15.66064,10.92871H22.1001V7a2,2,0,0,1,4,0V17.70459h1.54883a2,2,0,0,1,0,4H20.55127a2,2,0,0,1,0-4H22.1001V14.92871H15.66064a6.66777,6.66777,0,0,0-6.66015,6.66016v5.41406H77.84082V21.58887a6.66777,6.66777,0,0,0-6.66016-6.66016H68.67041v-4h2.51025A10.67236,10.67236,0,0,1,81.84082,21.58887V54.54633A21.01471,21.01471,0,0,1,95,74.00781ZM53.382,77.83887a20.92257,20.92257,0,0,1,24.4588-24.45655V31.00293H9.00049V71.17871a6.66778,6.66778,0,0,0,6.66015,6.66016ZM91,74.00781A16.99243,16.99243,0,1,0,74.00781,91,17.01171,17.01171,0,0,0,91,74.00781Z"/>
</svg>