<svg xmlns="http://www.w3.org/2000/svg"
     fill="white"
     viewBox="0 0 64 80" version="1.1" xml:space="preserve" style="" x="0px" y="0px" fill-rule="evenodd"
     clip-rule="evenodd" stroke-linejoin="round" stroke-miterlimit="2"><g><path d="M28.81,37.021c-2.071,-1.132 -3.477,-3.33 -3.477,-5.854c0,-3.68 2.988,-6.667 6.667,-6.667c3.679,-0 6.667,2.987 6.667,6.667c-0,2.524 -1.406,4.722 -3.477,5.854c3.957,1.333 6.81,5.075 6.81,9.479c-0,1.755 -0.462,3.48 -1.34,5c-0.178,0.309 -0.509,0.5 -0.866,0.5l-15.588,0c-0.357,0 -0.688,-0.191 -0.866,-0.5c-0.878,-1.52 -1.34,-3.245 -1.34,-5c-0,-4.404 2.853,-8.146 6.81,-9.479Zm10.383,12.979c0.53,-1.088 0.807,-2.285 0.807,-3.5c-0,-4.415 -3.585,-8 -8,-8c-4.415,-0 -8,3.585 -8,8c-0,1.215 0.277,2.412 0.807,3.5l14.386,-0Zm10.066,-9.951c0.53,-1.088 0.807,-2.284 0.807,-3.5c-0,-4.415 -3.585,-8 -8,-8c-0.552,0 -1,-0.448 -1,-1c-0,-0.551 0.448,-1 1,-1c5.519,0 10,4.481 10,10c-0,1.756 -0.462,3.48 -1.34,5c-0.179,0.31 -0.509,0.5 -0.866,0.5l-7.062,0c-0.552,0 -1,-0.448 -1,-1c-0,-0.551 0.448,-1 1,-1l6.461,0Zm-34.452,-0.049l6.461,0c0.552,0 1,0.448 1,1c-0,0.552 -0.448,1 -1,1l-7.062,-0c-0.357,-0 -0.688,-0.191 -0.866,-0.5c-0.878,-1.52 -1.34,-3.245 -1.34,-5c-0,-5.519 4.481,-10 10,-10c0.552,-0 1,0.448 1,1c0,0.552 -0.448,1 -1,1c-4.415,-0 -8,3.585 -8,8c-0,1.215 0.277,2.412 0.807,3.5Zm17.193,-13.5c2.576,-0 4.667,2.091 4.667,4.667c-0,2.575 -2.091,4.666 -4.667,4.666c-2.576,0 -4.667,-2.091 -4.667,-4.666c0,-2.576 2.091,-4.667 4.667,-4.667Zm9.5,-12.5c-3.311,0 -6,2.689 -6,6c0,3.311 2.689,6 6,6c3.311,0 6,-2.689 6,-6c0,-3.311 -2.689,-6 -6,-6Zm-18.5,0c-3.311,0 -6,2.689 -6,6c-0,3.311 2.689,6 6,6c3.311,0 6,-2.689 6,-6c-0,-3.311 -2.689,-6 -6,-6Zm18.5,2c2.208,0 4,1.792 4,4c0,2.208 -1.792,4 -4,4c-2.208,0 -4,-1.792 -4,-4c0,-2.208 1.792,-4 4,-4Zm-18.5,0c2.208,0 4,1.792 4,4c-0,2.208 -1.792,4 -4,4c-2.208,0 -4,-1.792 -4,-4c-0,-2.208 1.792,-4 4,-4Z"/></g>
   </svg>